<?xml version="1.0" standalone="no"?>
<!DOCTYPE svg PUBLIC "-//W3C//DTD SVG 20010904//EN"
 "http://www.w3.org/TR/2001/REC-SVG-20010904/DTD/svg10.dtd">
<svg version="1.0" xmlns="http://www.w3.org/2000/svg"
 width="2048.000000pt" height="2048.000000pt" viewBox="0 0 2048.000000 2048.000000"
 preserveAspectRatio="xMidYMid meet">

<g transform="translate(0.000000,2048.000000) scale(0.100000,-0.100000)"
fill="#000000" stroke="none">
<path d="M10645 17446 c-133 -33 -191 -87 -274 -258 -154 -316 -314 -983 -376
-1563 -9 -82 -18 -160 -20 -171 -5 -21 -12 -22 -157 -27 l-153 -5 -215 118
c-118 64 -264 143 -325 175 -60 32 -174 93 -252 136 -235 130 -536 275 -878
424 -316 138 -569 298 -835 529 -166 144 -268 226 -294 236 -38 14 -76 -20
-76 -68 0 -46 113 -248 221 -396 193 -264 524 -593 959 -956 132 -109 210
-180 210 -189 0 -3 -69 -19 -152 -34 -186 -34 -571 -126 -848 -202 -248 -69
-173 -70 -895 12 -209 23 -281 27 -555 27 -353 1 -425 -8 -583 -74 -148 -62
-211 -120 -191 -177 15 -43 48 -49 168 -30 128 21 175 21 346 2 174 -20 408
-76 443 -105 4 -3 -104 -53 -240 -110 -657 -276 -1108 -559 -1520 -954 -368
-353 -682 -790 -916 -1276 -297 -617 -480 -1299 -563 -2102 -21 -208 -30 -897
-15 -1135 40 -603 128 -1198 247 -1663 202 -788 443 -1407 793 -2033 399 -714
927 -1353 1521 -1838 591 -484 1297 -864 2090 -1126 651 -216 1305 -353 2035
-427 460 -47 689 -60 1065 -60 887 -1 1749 113 2495 330 619 181 1095 378
1580 654 1055 602 1867 1483 2420 2625 264 544 433 1019 600 1684 134 537 225
1109 267 1681 17 235 17 1045 0 1245 -119 1384 -569 2468 -1367 3294 -312 323
-691 600 -1180 864 -213 114 -500 238 -784 337 -152 54 -152 54 141 70 187 10
228 10 338 -5 149 -20 233 -36 361 -71 93 -26 97 -26 131 -10 22 11 41 29 49
47 18 45 -9 74 -137 141 -386 204 -805 312 -1254 325 -218 6 -338 -5 -612 -59
l-157 -30 -73 30 c-143 58 -445 142 -516 142 -14 0 -22 5 -20 12 3 7 119 89
259 183 564 378 1053 768 1384 1106 196 199 281 297 300 343 17 40 2 82 -35
94 -33 12 -60 0 -129 -57 -70 -59 -261 -189 -401 -272 -256 -154 -487 -267
-1005 -491 -389 -169 -352 -155 -375 -140 -22 14 -79 16 -98 3 -7 -4 -27 -29
-45 -55 -31 -45 -45 -53 -323 -190 -335 -165 -469 -240 -684 -379 -85 -55
-175 -110 -200 -122 l-45 -23 -212 17 c-116 9 -214 19 -218 23 -8 8 38 283 77
458 52 234 135 459 206 562 16 24 71 90 122 148 109 124 133 170 133 260 1 83
-22 151 -82 242 -151 230 -444 361 -676 304z m185 -187 c0 -6 -6 -9 -12 -7 -7
3 -26 -1 -43 -8 l-30 -12 40 1 c22 0 45 7 50 15 25 32 202 -64 289 -157 26
-29 46 -55 43 -57 -3 -3 3 -14 14 -25 25 -25 24 -39 -2 -34 -12 2 -31 -2 -43
-10 -11 -8 -25 -15 -31 -15 -5 0 -3 5 5 10 10 6 11 10 3 10 -7 0 -13 9 -13 20
0 44 -127 155 -219 191 -25 10 -39 19 -31 19 9 1 7 5 -7 10 -25 10 -93 2 -93
-12 0 -5 5 -6 10 -3 6 3 10 1 10 -5 0 -6 5 -8 11 -5 6 4 5 -2 -2 -13 -11 -17
-10 -26 1 -49 7 -15 12 -32 11 -38 -2 -5 1 -7 4 -3 4 4 26 -9 49 -28 50 -42
170 -104 203 -104 15 0 22 -4 18 -11 -4 -6 -14 -8 -22 -5 -11 5 -13 2 -8 -11
4 -10 8 -24 8 -30 0 -7 7 -13 15 -13 9 0 12 -3 9 -6 -10 -11 -134 35 -197 72
-147 86 -269 274 -202 313 24 14 162 14 162 0z m-207 -308 c26 -24 26 -24 8
-50 -31 -44 -60 -106 -130 -284 -135 -341 -260 -772 -316 -1087 -13 -79 -27
-146 -31 -149 -3 -3 -3 10 0 29 3 19 15 109 27 200 32 258 75 505 130 755 81
368 104 447 201 704 8 22 10 21 47 -35 21 -33 50 -70 64 -83z m581 10 c4 -1 6
-7 3 -15 -3 -8 -1 -16 5 -18 7 -3 9 -15 4 -32 -5 -22 -11 -27 -26 -23 -11 3
-18 1 -14 -4 3 -5 -17 -9 -45 -9 -41 0 -49 3 -45 15 4 8 14 15 23 16 9 1 5 4
-9 8 -23 7 -22 8 13 15 21 4 35 11 32 16 -3 5 -1 11 5 15 6 4 8 11 5 16 -4 5
4 7 17 5 13 -3 27 -5 32 -5z m1230 -1098 c-8 -21 -25 -62 -35 -90 -19 -48 -28
-58 -107 -109 -48 -32 -114 -73 -147 -92 -33 -19 -109 -68 -170 -107 -60 -40
-176 -113 -256 -163 -129 -81 -152 -92 -192 -92 -66 0 -70 23 -18 108 24 40
36 69 30 73 -12 7 147 114 306 207 101 58 580 300 598 301 4 1 0 -16 -9 -36z
m-3844 -767 c31 -32 48 -56 39 -56 -8 0 -66 7 -129 15 -177 23 -544 55 -639
56 -48 1 -113 4 -146 8 -58 6 -53 7 205 59 146 29 312 61 370 71 l105 17 70
-57 c39 -31 95 -82 125 -113z m2358 164 l76 0 -93 -45 c-51 -25 -93 -45 -94
-45 -1 0 0 23 2 51 2 39 6 49 18 45 8 -3 49 -6 91 -6z m3267 -91 c107 -9 344
-45 353 -53 1 -2 -86 -7 -195 -10 -276 -10 -424 -23 -598 -53 -128 -22 -188
-27 -410 -30 -171 -3 -257 -1 -250 5 14 14 316 87 460 112 225 38 432 47 640
29z m-8155 -84 c52 -3 160 -15 240 -25 196 -26 711 -80 763 -80 28 0 37 -3 28
-9 -11 -7 -9 -12 10 -21 45 -24 52 -56 15 -70 -39 -14 -186 -19 -314 -10 -182
13 -419 66 -717 160 -71 22 -140 41 -152 42 -17 2 -19 5 -11 15 6 8 18 11 27
9 9 -2 59 -7 111 -11z m7949 -321 c360 -93 693 -221 1046 -399 460 -233 816
-484 1144 -808 363 -359 619 -717 842 -1176 72 -146 87 -198 29 -94 -62 111
-204 329 -288 442 -231 312 -568 673 -807 863 -378 299 -787 535 -1246 718
-236 94 -1106 332 -1334 365 l-50 8 51 17 c28 10 116 34 195 53 79 19 162 40
184 45 22 6 44 10 49 11 6 1 89 -20 185 -45z m-7529 -65 c69 -16 129 -34 134
-39 6 -6 7 -10 3 -10 -3 0 -92 -25 -198 -55 -297 -86 -511 -171 -862 -339
-756 -362 -1432 -991 -1877 -1746 -330 -559 -570 -1259 -729 -2130 -40 -217
-57 -344 -80 -578 -11 -107 -22 -196 -25 -200 -20 -20 3 559 34 868 96 935
376 1779 815 2455 312 481 699 869 1187 1189 312 205 735 411 1126 551 283
101 252 93 302 78 25 -8 101 -27 170 -44z m1476 -64 c289 -28 477 -65 719
-144 50 -16 81 -30 70 -30 -20 -1 -197 19 -530 60 -244 30 -545 36 -711 15
-258 -33 -519 -118 -769 -251 -71 -38 -131 -67 -131 -64 -1 2 -11 -3 -21 -11
-11 -8 -1 2 21 24 123 116 375 260 573 325 153 50 372 86 549 90 39 0 142 -6
230 -14z m-1681 -1661 c72 -18 95 -32 131 -80 19 -25 29 -51 32 -88 11 -131
-120 -265 -313 -321 -80 -24 -214 -17 -271 13 -115 59 -143 174 -71 293 90
150 309 231 492 183z m7582 -187 c221 -55 377 -140 518 -282 96 -97 137 -158
190 -282 47 -109 65 -209 65 -356 0 -198 -50 -362 -172 -565 -173 -288 -467
-496 -800 -568 -88 -19 -328 -31 -351 -18 -19 11 -5 23 257 221 71 54 138 110
149 124 44 61 26 151 -40 195 l-32 21 29 28 c61 58 76 135 41 211 -32 71 -120
114 -193 93 -59 -16 -94 -41 -650 -476 -87 -68 -161 -123 -165 -123 -5 0 -41
28 -81 63 -255 218 -407 535 -388 812 22 333 226 597 599 776 324 154 715 202
1024 126z m-6482 -327 c332 -47 566 -163 642 -318 37 -74 39 -175 6 -238 -30
-57 -113 -129 -181 -156 -50 -20 -74 -23 -197 -23 -122 0 -152 4 -235 27 -363
104 -541 249 -540 441 1 198 210 308 505 267z"/>
</g>
</svg>
